<mxfile host="Electron" modified="2023-12-11T23:19:32.943Z" agent="Mozilla/5.0 (Windows NT 10.0; Win64; x64) AppleWebKit/537.36 (KHTML, like Gecko) draw.io/22.0.2 Chrome/114.0.5735.289 Electron/25.8.4 Safari/537.36" etag="Lusn6hOXecj8Fl6wtgCu" version="22.0.2" type="device">
  <diagram id="R2lEEEUBdFMjLlhIrx00" name="Page-1">
    <mxGraphModel dx="1220" dy="764" grid="1" gridSize="10" guides="1" tooltips="1" connect="1" arrows="1" fold="1" page="1" pageScale="1" pageWidth="850" pageHeight="1100" math="0" shadow="0" extFonts="Permanent Marker^https://fonts.googleapis.com/css?family=Permanent+Marker">
      <root>
        <mxCell id="0" />
        <mxCell id="1" parent="0" />
        <mxCell id="BOA0MRGq9uILTFCzqBkd-11" value="CANDIDATO" style="swimlane;fontStyle=1;childLayout=stackLayout;horizontal=1;startSize=30;horizontalStack=0;resizeParent=1;resizeParentMax=0;resizeLast=0;collapsible=1;marginBottom=0;whiteSpace=wrap;html=1;fontSize=18;" vertex="1" parent="1">
          <mxGeometry x="70" y="195" width="270" height="420" as="geometry" />
        </mxCell>
        <mxCell id="BOA0MRGq9uILTFCzqBkd-12" value="ID" style="text;strokeColor=default;fillColor=none;align=left;verticalAlign=middle;spacingLeft=15;spacingRight=4;overflow=hidden;points=[[0,0.5],[1,0.5]];portConstraint=eastwest;rotatable=0;whiteSpace=wrap;html=1;spacing=2;fontSize=18;fontStyle=0" vertex="1" parent="BOA0MRGq9uILTFCzqBkd-11">
          <mxGeometry y="30" width="270" height="30" as="geometry" />
        </mxCell>
        <mxCell id="BOA0MRGq9uILTFCzqBkd-86" value="BI UNIQUE" style="text;strokeColor=none;fillColor=none;align=left;verticalAlign=middle;spacingLeft=15;spacingRight=4;overflow=hidden;points=[[0,0.5],[1,0.5]];portConstraint=eastwest;rotatable=0;whiteSpace=wrap;html=1;spacing=2;fontSize=18;fontStyle=0" vertex="1" parent="BOA0MRGq9uILTFCzqBkd-11">
          <mxGeometry y="60" width="270" height="30" as="geometry" />
        </mxCell>
        <mxCell id="BOA0MRGq9uILTFCzqBkd-13" value="Nome&lt;span style=&quot;white-space: pre; font-size: 18px;&quot;&gt;&#x9;&lt;/span&gt;&lt;span style=&quot;white-space: pre; font-size: 18px;&quot;&gt;&#x9;&lt;/span&gt;" style="text;strokeColor=none;fillColor=none;align=left;verticalAlign=middle;spacingLeft=15;spacingRight=4;overflow=hidden;points=[[0,0.5],[1,0.5]];portConstraint=eastwest;rotatable=0;whiteSpace=wrap;html=1;spacing=2;fontSize=18;fontStyle=0;glass=0;shadow=0;" vertex="1" parent="BOA0MRGq9uILTFCzqBkd-11">
          <mxGeometry y="90" width="270" height="30" as="geometry" />
        </mxCell>
        <mxCell id="BOA0MRGq9uILTFCzqBkd-82" value="Genero" style="text;strokeColor=none;fillColor=none;align=left;verticalAlign=middle;spacingLeft=15;spacingRight=4;overflow=hidden;points=[[0,0.5],[1,0.5]];portConstraint=eastwest;rotatable=0;whiteSpace=wrap;html=1;spacing=2;fontSize=18;fontStyle=0" vertex="1" parent="BOA0MRGq9uILTFCzqBkd-11">
          <mxGeometry y="120" width="270" height="30" as="geometry" />
        </mxCell>
        <mxCell id="BOA0MRGq9uILTFCzqBkd-14" value="Data_nascimento" style="text;strokeColor=none;fillColor=none;align=left;verticalAlign=middle;spacingLeft=15;spacingRight=4;overflow=hidden;points=[[0,0.5],[1,0.5]];portConstraint=eastwest;rotatable=0;whiteSpace=wrap;html=1;spacing=2;fontSize=18;fontStyle=0" vertex="1" parent="BOA0MRGq9uILTFCzqBkd-11">
          <mxGeometry y="150" width="270" height="30" as="geometry" />
        </mxCell>
        <mxCell id="BOA0MRGq9uILTFCzqBkd-41" value="Data_emisao_bi" style="text;strokeColor=none;fillColor=none;align=left;verticalAlign=middle;spacingLeft=15;spacingRight=4;overflow=hidden;points=[[0,0.5],[1,0.5]];portConstraint=eastwest;rotatable=0;whiteSpace=wrap;html=1;spacing=2;fontSize=18;fontStyle=0" vertex="1" parent="BOA0MRGq9uILTFCzqBkd-11">
          <mxGeometry y="180" width="270" height="30" as="geometry" />
        </mxCell>
        <mxCell id="BOA0MRGq9uILTFCzqBkd-42" value="Data_expiracao_bi" style="text;strokeColor=none;fillColor=none;align=left;verticalAlign=middle;spacingLeft=15;spacingRight=4;overflow=hidden;points=[[0,0.5],[1,0.5]];portConstraint=eastwest;rotatable=0;whiteSpace=wrap;html=1;spacing=2;fontSize=18;fontStyle=0" vertex="1" parent="BOA0MRGq9uILTFCzqBkd-11">
          <mxGeometry y="210" width="270" height="30" as="geometry" />
        </mxCell>
        <mxCell id="BOA0MRGq9uILTFCzqBkd-38" value="URL_bi" style="text;strokeColor=none;fillColor=none;align=left;verticalAlign=middle;spacingLeft=15;spacingRight=4;overflow=hidden;points=[[0,0.5],[1,0.5]];portConstraint=eastwest;rotatable=0;whiteSpace=wrap;html=1;spacing=2;fontSize=18;fontStyle=0" vertex="1" parent="BOA0MRGq9uILTFCzqBkd-11">
          <mxGeometry y="240" width="270" height="30" as="geometry" />
        </mxCell>
        <mxCell id="BOA0MRGq9uILTFCzqBkd-39" value="Media_do_medio" style="text;strokeColor=default;fillColor=none;align=left;verticalAlign=middle;spacingLeft=15;spacingRight=4;overflow=hidden;points=[[0,0.5],[1,0.5]];portConstraint=eastwest;rotatable=0;whiteSpace=wrap;html=1;spacing=2;fontSize=18;fontStyle=0" vertex="1" parent="BOA0MRGq9uILTFCzqBkd-11">
          <mxGeometry y="270" width="270" height="30" as="geometry" />
        </mxCell>
        <mxCell id="BOA0MRGq9uILTFCzqBkd-34" value="Curso_medio" style="text;strokeColor=none;fillColor=none;align=left;verticalAlign=middle;spacingLeft=15;spacingRight=4;overflow=hidden;points=[[0,0.5],[1,0.5]];portConstraint=eastwest;rotatable=0;whiteSpace=wrap;html=1;fontSize=18;fontStyle=0" vertex="1" parent="BOA0MRGq9uILTFCzqBkd-11">
          <mxGeometry y="300" width="270" height="30" as="geometry" />
        </mxCell>
        <mxCell id="BOA0MRGq9uILTFCzqBkd-40" value="Escola_medio" style="text;strokeColor=none;fillColor=none;align=left;verticalAlign=middle;spacingLeft=15;spacingRight=4;overflow=hidden;points=[[0,0.5],[1,0.5]];portConstraint=eastwest;rotatable=0;whiteSpace=wrap;html=1;spacing=2;fontSize=18;fontStyle=0" vertex="1" parent="BOA0MRGq9uILTFCzqBkd-11">
          <mxGeometry y="330" width="270" height="30" as="geometry" />
        </mxCell>
        <mxCell id="BOA0MRGq9uILTFCzqBkd-37" value="URL_certificado&lt;br style=&quot;font-size: 18px;&quot;&gt;" style="text;strokeColor=none;fillColor=none;align=left;verticalAlign=middle;spacingLeft=15;spacingRight=4;overflow=hidden;points=[[0,0.5],[1,0.5]];portConstraint=eastwest;rotatable=0;whiteSpace=wrap;html=1;spacing=2;fontSize=18;fontStyle=0" vertex="1" parent="BOA0MRGq9uILTFCzqBkd-11">
          <mxGeometry y="360" width="270" height="30" as="geometry" />
        </mxCell>
        <mxCell id="BOA0MRGq9uILTFCzqBkd-43" value="Ano_termino_medio" style="text;strokeColor=none;fillColor=none;align=left;verticalAlign=middle;spacingLeft=15;spacingRight=4;overflow=hidden;points=[[0,0.5],[1,0.5]];portConstraint=eastwest;rotatable=0;whiteSpace=wrap;html=1;spacing=2;fontSize=18;fontStyle=0" vertex="1" parent="BOA0MRGq9uILTFCzqBkd-11">
          <mxGeometry y="390" width="270" height="30" as="geometry" />
        </mxCell>
        <mxCell id="BOA0MRGq9uILTFCzqBkd-56" value="CANDIDATURA" style="swimlane;fontStyle=1;childLayout=stackLayout;horizontal=1;startSize=30;horizontalStack=0;resizeParent=1;resizeParentMax=0;resizeLast=0;collapsible=1;marginBottom=0;whiteSpace=wrap;html=1;fontSize=18;" vertex="1" parent="1">
          <mxGeometry x="410" y="300" width="430" height="240" as="geometry" />
        </mxCell>
        <mxCell id="BOA0MRGq9uILTFCzqBkd-57" value="ID" style="text;strokeColor=default;fillColor=none;align=left;verticalAlign=middle;spacingLeft=15;spacingRight=4;overflow=hidden;points=[[0,0.5],[1,0.5]];portConstraint=eastwest;rotatable=0;whiteSpace=wrap;html=1;spacing=2;fontSize=18;fontStyle=0" vertex="1" parent="BOA0MRGq9uILTFCzqBkd-56">
          <mxGeometry y="30" width="430" height="30" as="geometry" />
        </mxCell>
        <mxCell id="BOA0MRGq9uILTFCzqBkd-58" value="Data&lt;span style=&quot;white-space: pre;&quot;&gt;&#x9;&lt;/span&gt;" style="text;strokeColor=none;fillColor=none;align=left;verticalAlign=middle;spacingLeft=15;spacingRight=4;overflow=hidden;points=[[0,0.5],[1,0.5]];portConstraint=eastwest;rotatable=0;whiteSpace=wrap;html=1;spacing=2;fontSize=18;fontStyle=0" vertex="1" parent="BOA0MRGq9uILTFCzqBkd-56">
          <mxGeometry y="60" width="430" height="30" as="geometry" />
        </mxCell>
        <mxCell id="BOA0MRGq9uILTFCzqBkd-59" value="ID_candidato FOREIGN KEY" style="text;strokeColor=none;fillColor=none;align=left;verticalAlign=middle;spacingLeft=15;spacingRight=4;overflow=hidden;points=[[0,0.5],[1,0.5]];portConstraint=eastwest;rotatable=0;whiteSpace=wrap;html=1;spacing=2;fontSize=18;fontStyle=0" vertex="1" parent="BOA0MRGq9uILTFCzqBkd-56">
          <mxGeometry y="90" width="430" height="30" as="geometry" />
        </mxCell>
        <mxCell id="BOA0MRGq9uILTFCzqBkd-60" value="ID_curso FOREIGN KEY" style="text;strokeColor=none;fillColor=none;align=left;verticalAlign=middle;spacingLeft=15;spacingRight=4;overflow=hidden;points=[[0,0.5],[1,0.5]];portConstraint=eastwest;rotatable=0;whiteSpace=wrap;html=1;fontSize=18;fontStyle=0" vertex="1" parent="BOA0MRGq9uILTFCzqBkd-56">
          <mxGeometry y="120" width="430" height="30" as="geometry" />
        </mxCell>
        <mxCell id="BOA0MRGq9uILTFCzqBkd-61" value="Ano_letivo" style="text;strokeColor=none;fillColor=none;align=left;verticalAlign=middle;spacingLeft=15;spacingRight=4;overflow=hidden;points=[[0,0.5],[1,0.5]];portConstraint=eastwest;rotatable=0;whiteSpace=wrap;html=1;spacing=2;fontSize=18;fontStyle=0" vertex="1" parent="BOA0MRGq9uILTFCzqBkd-56">
          <mxGeometry y="150" width="430" height="30" as="geometry" />
        </mxCell>
        <mxCell id="BOA0MRGq9uILTFCzqBkd-81" value="Estado ENUM(&quot;pendente&quot;, &quot;aprovado&quot;, &quot;rejeitado&quot;)" style="text;strokeColor=none;fillColor=none;align=left;verticalAlign=middle;spacingLeft=15;spacingRight=4;overflow=hidden;points=[[0,0.5],[1,0.5]];portConstraint=eastwest;rotatable=0;whiteSpace=wrap;html=1;spacing=2;fontSize=18;fontStyle=0" vertex="1" parent="BOA0MRGq9uILTFCzqBkd-56">
          <mxGeometry y="180" width="430" height="30" as="geometry" />
        </mxCell>
        <mxCell id="BOA0MRGq9uILTFCzqBkd-89" value="Nota" style="text;strokeColor=none;fillColor=none;align=left;verticalAlign=middle;spacingLeft=15;spacingRight=4;overflow=hidden;points=[[0,0.5],[1,0.5]];portConstraint=eastwest;rotatable=0;whiteSpace=wrap;html=1;spacing=2;fontSize=18;fontStyle=0" vertex="1" parent="BOA0MRGq9uILTFCzqBkd-56">
          <mxGeometry y="210" width="430" height="30" as="geometry" />
        </mxCell>
        <mxCell id="BOA0MRGq9uILTFCzqBkd-68" value="CURSO" style="swimlane;fontStyle=1;childLayout=stackLayout;horizontal=1;startSize=30;horizontalStack=0;resizeParent=1;resizeParentMax=0;resizeLast=0;collapsible=1;marginBottom=0;whiteSpace=wrap;html=1;fontSize=18;" vertex="1" parent="1">
          <mxGeometry x="910" y="780" width="270" height="210" as="geometry" />
        </mxCell>
        <mxCell id="BOA0MRGq9uILTFCzqBkd-69" value="&amp;nbsp;ID" style="text;strokeColor=default;fillColor=none;align=left;verticalAlign=middle;spacingLeft=15;spacingRight=4;overflow=hidden;points=[[0,0.5],[1,0.5]];portConstraint=eastwest;rotatable=0;whiteSpace=wrap;html=1;spacing=2;fontSize=18;fontStyle=0" vertex="1" parent="BOA0MRGq9uILTFCzqBkd-68">
          <mxGeometry y="30" width="270" height="30" as="geometry" />
        </mxCell>
        <mxCell id="BOA0MRGq9uILTFCzqBkd-70" value="descricao UNIQUE" style="text;strokeColor=none;fillColor=none;align=left;verticalAlign=middle;spacingLeft=15;spacingRight=4;overflow=hidden;points=[[0,0.5],[1,0.5]];portConstraint=eastwest;rotatable=0;whiteSpace=wrap;html=1;spacing=2;fontSize=18;fontStyle=0" vertex="1" parent="BOA0MRGq9uILTFCzqBkd-68">
          <mxGeometry y="60" width="270" height="30" as="geometry" />
        </mxCell>
        <mxCell id="BOA0MRGq9uILTFCzqBkd-71" value="anos" style="text;strokeColor=none;fillColor=none;align=left;verticalAlign=middle;spacingLeft=15;spacingRight=4;overflow=hidden;points=[[0,0.5],[1,0.5]];portConstraint=eastwest;rotatable=0;whiteSpace=wrap;html=1;spacing=2;fontSize=18;fontStyle=0" vertex="1" parent="BOA0MRGq9uILTFCzqBkd-68">
          <mxGeometry y="90" width="270" height="30" as="geometry" />
        </mxCell>
        <mxCell id="BOA0MRGq9uILTFCzqBkd-72" value="total_cadeiras" style="text;strokeColor=none;fillColor=none;align=left;verticalAlign=middle;spacingLeft=15;spacingRight=4;overflow=hidden;points=[[0,0.5],[1,0.5]];portConstraint=eastwest;rotatable=0;whiteSpace=wrap;html=1;fontSize=18;fontStyle=0" vertex="1" parent="BOA0MRGq9uILTFCzqBkd-68">
          <mxGeometry y="120" width="270" height="30" as="geometry" />
        </mxCell>
        <mxCell id="BOA0MRGq9uILTFCzqBkd-73" value="Ano_letivo" style="text;strokeColor=none;fillColor=none;align=left;verticalAlign=middle;spacingLeft=15;spacingRight=4;overflow=hidden;points=[[0,0.5],[1,0.5]];portConstraint=eastwest;rotatable=0;whiteSpace=wrap;html=1;spacing=2;fontSize=18;fontStyle=0" vertex="1" parent="BOA0MRGq9uILTFCzqBkd-68">
          <mxGeometry y="150" width="270" height="30" as="geometry" />
        </mxCell>
        <mxCell id="BOA0MRGq9uILTFCzqBkd-74" value="Quantidade_vagas" style="text;strokeColor=none;fillColor=none;align=left;verticalAlign=middle;spacingLeft=15;spacingRight=4;overflow=hidden;points=[[0,0.5],[1,0.5]];portConstraint=eastwest;rotatable=0;whiteSpace=wrap;html=1;spacing=2;fontSize=18;fontStyle=0" vertex="1" parent="BOA0MRGq9uILTFCzqBkd-68">
          <mxGeometry y="180" width="270" height="30" as="geometry" />
        </mxCell>
        <mxCell id="BOA0MRGq9uILTFCzqBkd-79" value="" style="edgeStyle=orthogonalEdgeStyle;rounded=0;orthogonalLoop=1;jettySize=auto;html=1;entryX=0.003;entryY=0.073;entryDx=0;entryDy=0;entryPerimeter=0;" edge="1" parent="1" source="BOA0MRGq9uILTFCzqBkd-37" target="BOA0MRGq9uILTFCzqBkd-59">
          <mxGeometry relative="1" as="geometry" />
        </mxCell>
        <mxCell id="BOA0MRGq9uILTFCzqBkd-80" value="" style="edgeStyle=orthogonalEdgeStyle;rounded=0;orthogonalLoop=1;jettySize=auto;html=1;" edge="1" parent="1" source="BOA0MRGq9uILTFCzqBkd-59" target="BOA0MRGq9uILTFCzqBkd-73">
          <mxGeometry relative="1" as="geometry" />
        </mxCell>
        <mxCell id="BOA0MRGq9uILTFCzqBkd-84" value="Nãp pode haver candidatura, com id_candidato no mesno ano&amp;nbsp;" style="text;html=1;align=center;verticalAlign=middle;resizable=0;points=[];autosize=1;strokeColor=none;fillColor=none;" vertex="1" parent="1">
          <mxGeometry x="50" y="650" width="360" height="30" as="geometry" />
        </mxCell>
        <mxCell id="BOA0MRGq9uILTFCzqBkd-85" value="Não pode haver o candidato com mesmo BI ou nome e Data_nascimento iguais" style="text;html=1;align=center;verticalAlign=middle;resizable=0;points=[];autosize=1;strokeColor=none;fillColor=none;" vertex="1" parent="1">
          <mxGeometry x="50" y="680" width="450" height="30" as="geometry" />
        </mxCell>
      </root>
    </mxGraphModel>
  </diagram>
</mxfile>
